<svg xmlns="http://www.w3.org/2000/svg" version="1.1" xmlns:xlink="http://www.w3.org/1999/xlink" xmlns:svgjs="http://svgjs.dev/svgjs" width="1000" height="625" viewBox="0 0 1000 625"><g transform="matrix(1,0,0,1,0,0)"><svg viewBox="0 0 576 360" data-background-color="#0718c4" preserveAspectRatio="xMidYMid meet" height="625" width="1000" xmlns="http://www.w3.org/2000/svg" xmlns:xlink="http://www.w3.org/1999/xlink"><g id="tight-bounds" transform="matrix(1,0,0,1,0,0)"><svg viewBox="0 0 576 360" height="360" width="576"><g><svg></svg></g><g><svg viewBox="0 0 576 360" height="360" width="576"><g><path transform="translate(288,180) scale(180,180)" d="M-0.866-0.5l0.866-0.5 0.866 0.5 0 1-0.866 0.5-0.866-0.5z" fill="#8dbdff" fill-rule="nonzero" stroke="none" stroke-width="1" stroke-linecap="butt" stroke-linejoin="miter" stroke-miterlimit="10" stroke-dasharray="" stroke-dashoffset="0" font-family="none" font-weight="none" font-size="none" text-anchor="none" style="mix-blend-mode: normal" data-fill-palette-color="tertiary"></path></g><g transform="matrix(1,0,0,1,172.8,133.56163572678133)"><svg viewBox="0 0 230.4 92.87672854643735" height="92.87672854643735" width="230.4"><g><svg viewBox="0 0 230.4 92.87672854643735" height="92.87672854643735" width="230.4"><g><svg viewBox="0 0 230.4 92.87672854643735" height="92.87672854643735" width="230.4"><g transform="matrix(1,0,0,1,0,57.40154427125307)"><svg viewBox="0 0 230.4 35.475184275184276" height="35.475184275184276" width="230.4"><g><svg viewBox="0 0 230.4 35.475184275184276" height="35.475184275184276" width="230.4"><g><svg viewBox="0 0 230.4 35.475184275184276" height="35.475184275184276" width="230.4"><g transform="matrix(1,0,0,1,0,0)"><svg width="230.4" viewBox="1.35 -36.25 305.21999999999997 47" height="35.475184275184276" data-palette-color="#0718c4"><path d="M20.8-22.05L16.9-18Q16.3-18.7 15.65-19.2 15-19.7 14-19.7L14-19.7Q13.4-19.7 12.65-19.5 11.9-19.3 11.25-18.57 10.6-17.85 10.18-16.48 9.75-15.1 9.75-12.7L9.75-12.7Q9.75-10.35 10.23-8.93 10.7-7.5 11.43-6.75 12.15-6 13.03-5.75 13.9-5.5 14.7-5.5L14.7-5.5Q15.3-5.5 16-5.65 16.7-5.8 17.32-5.98 17.95-6.15 18.4-6.33 18.85-6.5 18.9-6.5L18.9-6.5 20.35-1.25 19.8-1Q19.25-0.7 18.28-0.38 17.3-0.05 15.93 0.2 14.55 0.45 12.9 0.45L12.9 0.45Q9.85 0.45 7.65-0.45 5.45-1.35 4.05-2.95 2.65-4.55 2-6.83 1.35-9.1 1.35-11.85L1.35-11.85Q1.35-15.2 2.27-17.78 3.2-20.35 4.83-22.1 6.45-23.85 8.68-24.73 10.9-25.6 13.5-25.6L13.5-25.6Q15.95-25.6 17.8-24.63 19.65-23.65 20.8-22.05L20.8-22.05ZM44.3-24L44.3-12.05Q44.3-9.05 44.7-7.05 45.1-5.05 45.65-3.85L45.65-3.85Q46.25-2.4 47.05-1.6L47.05-1.6 40.7 0.4Q40.15-0.1 39.7-0.85L39.7-0.85Q39.3-1.5 38.92-2.43 38.55-3.35 38.3-4.6L38.3-4.6Q37.45-2.25 35.8-0.98 34.15 0.3 31.45 0.3L31.45 0.3Q29 0.3 27.17-0.6 25.35-1.5 24.15-3.13 22.95-4.75 22.37-7.05 21.8-9.35 21.8-12.15L21.8-12.15Q21.8-15 22.72-17.45 23.65-19.9 25.3-21.68 26.95-23.45 29.25-24.45 31.55-25.45 34.35-25.45L34.35-25.45Q35.9-25.45 37.65-25.23 39.4-25 40.85-24.73 42.3-24.45 43.27-24.23 44.25-24 44.3-24L44.3-24ZM32.75-5.5Q33.5-5.5 34.17-6.15 34.85-6.8 35.35-7.9 35.85-9 36.12-10.43 36.4-11.85 36.4-13.45L36.4-13.45 36.4-19.25Q36.05-19.4 35.42-19.53 34.8-19.65 34.35-19.65L34.35-19.65Q33.15-19.65 32.35-19.13 31.55-18.6 31.07-17.68 30.6-16.75 30.4-15.45 30.2-14.15 30.2-12.65L30.2-12.65Q30.2-11.25 30.25-9.98 30.3-8.7 30.57-7.7 30.85-6.7 31.35-6.1 31.85-5.5 32.75-5.5L32.75-5.5ZM62-17.9Q61.45-17.9 60.8-17.6 60.15-17.3 59.55-16.68 58.95-16.05 58.55-15.08 58.15-14.1 58.15-12.75L58.15-12.75 58.15 0 50.25 0 50.25-13Q50.25-16 49.82-17.98 49.4-19.95 48.85-21.2L48.85-21.2Q48.25-22.6 47.5-23.45L47.5-23.45 53.85-25.45Q54.25-24.95 54.7-24.3L54.7-24.3Q55.05-23.75 55.45-22.9 55.85-22.05 56.1-20.95L56.1-20.95Q57.35-23.35 59.07-24.4 60.8-25.45 63.15-25.45L63.15-25.45Q64.2-25.45 65.02-25.28 65.85-25.1 66.4-24.9L66.4-24.9 64.35-17.35Q64-17.55 63.42-17.73 62.85-17.9 62-17.9L62-17.9ZM81.89-17.9Q81.34-17.9 80.69-17.6 80.04-17.3 79.44-16.68 78.84-16.05 78.44-15.08 78.04-14.1 78.04-12.75L78.04-12.75 78.04 0 70.14 0 70.14-13Q70.14-16 69.72-17.98 69.29-19.95 68.74-21.2L68.74-21.2Q68.14-22.6 67.39-23.45L67.39-23.45 73.74-25.45Q74.14-24.95 74.59-24.3L74.59-24.3Q74.94-23.75 75.34-22.9 75.74-22.05 75.99-20.95L75.99-20.95Q77.24-23.35 78.97-24.4 80.69-25.45 83.04-25.45L83.04-25.45Q84.09-25.45 84.92-25.28 85.74-25.1 86.29-24.9L86.29-24.9 84.24-17.35Q83.89-17.55 83.32-17.73 82.74-17.9 81.89-17.9L81.89-17.9ZM110.74-25.1L110.54-11.55Q110.54-9.95 110.82-8.58 111.09-7.2 111.44-5.88 111.79-4.55 112.09-3.15 112.39-1.75 112.39-0.15L112.39-0.15Q112.39 5.1 109.44 7.93 106.49 10.75 101.39 10.75L101.39 10.75Q99.09 10.75 96.59 10.2 94.09 9.65 91.69 8.65L91.69 8.65 93.54 2.55Q95.74 3.3 97.39 3.73 99.04 4.15 100.89 4.15L100.89 4.15Q102.89 4.15 104.12 3 105.34 1.85 105.34-0.3L105.34-0.3Q105.34-1.3 105.19-2.13 105.04-2.95 104.64-3.95L104.64-3.95Q103.34-1.7 101.09-0.7 98.84 0.3 96.24 0.3L96.24 0.3Q94.29 0.3 92.92-0.33 91.54-0.95 90.67-2.08 89.79-3.2 89.42-4.8 89.04-6.4 89.04-8.4L89.04-8.4 89.04-25.1 96.99-25.1 96.99-9.45Q96.99-7.7 97.42-6.63 97.84-5.55 98.99-5.55L98.99-5.55Q99.64-5.55 100.32-6.03 100.99-6.5 101.54-7.38 102.09-8.25 102.44-9.5 102.79-10.75 102.79-12.3L102.79-12.3 102.79-25.1 110.74-25.1ZM134.59-22.05L130.69-18Q130.09-18.7 129.44-19.2 128.79-19.7 127.79-19.7L127.79-19.7Q127.19-19.7 126.44-19.5 125.69-19.3 125.04-18.57 124.39-17.85 123.96-16.48 123.54-15.1 123.54-12.7L123.54-12.7Q123.54-10.35 124.01-8.93 124.49-7.5 125.21-6.75 125.94-6 126.81-5.75 127.69-5.5 128.49-5.5L128.49-5.5Q129.09-5.5 129.79-5.65 130.49-5.8 131.11-5.98 131.74-6.15 132.19-6.33 132.64-6.5 132.69-6.5L132.69-6.5 134.14-1.25 133.59-1Q133.04-0.7 132.06-0.38 131.09-0.05 129.71 0.2 128.34 0.45 126.69 0.45L126.69 0.45Q123.64 0.45 121.44-0.45 119.24-1.35 117.84-2.95 116.44-4.55 115.79-6.83 115.14-9.1 115.14-11.85L115.14-11.85Q115.14-15.2 116.06-17.78 116.99-20.35 118.61-22.1 120.24-23.85 122.46-24.73 124.69-25.6 127.29-25.6L127.29-25.6Q129.74-25.6 131.59-24.63 133.44-23.65 134.59-22.05L134.59-22.05ZM147.44-25.6Q153.39-25.6 156.11-22.2 158.84-18.8 158.84-12.8L158.84-12.8Q158.84-9.95 158.11-7.53 157.39-5.1 155.91-3.33 154.44-1.55 152.21-0.53 149.99 0.5 147.04 0.5L147.04 0.5Q144.04 0.5 141.86-0.38 139.69-1.25 138.31-2.9 136.94-4.55 136.26-6.93 135.59-9.3 135.59-12.25L135.59-12.25Q135.59-15.1 136.31-17.55 137.04-20 138.51-21.78 139.99-23.55 142.21-24.58 144.44-25.6 147.44-25.6L147.44-25.6ZM146.99-19.65Q146.09-19.65 145.49-19.13 144.89-18.6 144.56-17.68 144.24-16.75 144.11-15.5 143.99-14.25 143.99-12.8L143.99-12.8Q143.99-11.3 144.14-9.95 144.29-8.6 144.66-7.6 145.04-6.6 145.74-6.03 146.44-5.45 147.49-5.45L147.49-5.45Q148.39-5.45 148.99-6 149.59-6.55 149.91-7.48 150.24-8.4 150.36-9.65 150.49-10.9 150.49-12.3L150.49-12.3Q150.49-13.85 150.34-15.18 150.19-16.5 149.81-17.5 149.44-18.5 148.74-19.07 148.04-19.65 146.99-19.65L146.99-19.65ZM173.43-25.6Q179.38-25.6 182.11-22.2 184.83-18.8 184.83-12.8L184.83-12.8Q184.83-9.95 184.11-7.53 183.38-5.1 181.91-3.33 180.43-1.55 178.21-0.53 175.98 0.5 173.03 0.5L173.03 0.5Q170.03 0.5 167.86-0.38 165.68-1.25 164.31-2.9 162.93-4.55 162.26-6.93 161.58-9.3 161.58-12.25L161.58-12.25Q161.58-15.1 162.31-17.55 163.03-20 164.51-21.78 165.98-23.55 168.21-24.58 170.43-25.6 173.43-25.6L173.43-25.6ZM172.98-19.65Q172.08-19.65 171.48-19.13 170.88-18.6 170.56-17.68 170.23-16.75 170.11-15.5 169.98-14.25 169.98-12.8L169.98-12.8Q169.98-11.3 170.13-9.95 170.28-8.6 170.66-7.6 171.03-6.6 171.73-6.03 172.43-5.45 173.48-5.45L173.48-5.45Q174.38-5.45 174.98-6 175.58-6.55 175.91-7.48 176.23-8.4 176.36-9.65 176.48-10.9 176.48-12.3L176.48-12.3Q176.48-13.85 176.33-15.18 176.18-16.5 175.81-17.5 175.43-18.5 174.73-19.07 174.03-19.65 172.98-19.65L172.98-19.65ZM195.43 0.2Q193.68 0.2 192.46-0.3 191.23-0.8 190.41-1.68 189.58-2.55 189.21-3.7 188.83-4.85 188.83-6.2L188.83-6.2 188.83-34.9 196.73-36.25 196.73-7.9Q196.73-6.7 197.16-6.23 197.58-5.75 198.73-5.75L198.73-5.75Q199.28-5.75 199.96-5.85 200.63-5.95 201.18-6.05L201.18-6.05 201.93-1.1Q201.18-0.75 199.41-0.28 197.63 0.2 195.43 0.2L195.43 0.2ZM228.13-1.6L221.78 0.4 221.48 0.05Q221.18-0.25 220.78-0.9 220.38-1.55 219.98-2.48 219.58-3.4 219.38-4.6L219.38-4.6Q218.53-2.25 216.88-0.98 215.23 0.3 212.53 0.3L212.53 0.3Q210.08 0.3 208.25-0.6 206.43-1.5 205.23-3.13 204.03-4.75 203.45-7.05 202.88-9.35 202.88-12.15L202.88-12.15Q202.88-15 203.8-17.45 204.73-19.9 206.38-21.68 208.03-23.45 210.33-24.45 212.63-25.45 215.43-25.45L215.43-25.45Q215.88-25.45 216.4-25.4 216.93-25.35 217.48-25.3L217.48-25.3 217.48-36.2 225.38-34.9 225.38-12.05Q225.38-9.1 225.8-7.1 226.23-5.1 226.73-3.88 227.23-2.65 227.68-2.15L227.68-2.15 228.13-1.6ZM213.83-5.5Q214.58-5.5 215.25-6.15 215.93-6.8 216.43-7.9 216.93-9 217.2-10.43 217.48-11.85 217.48-13.45L217.48-13.45 217.48-19.25Q217.13-19.4 216.5-19.53 215.88-19.65 215.43-19.65L215.43-19.65Q214.23-19.65 213.43-19.13 212.63-18.6 212.15-17.68 211.68-16.75 211.48-15.45 211.28-14.15 211.28-12.65L211.28-12.65Q211.28-11.25 211.33-9.98 211.38-8.7 211.65-7.7 211.93-6.7 212.43-6.1 212.93-5.5 213.83-5.5L213.83-5.5ZM245.08-12.6L245.08-25.1 252.98-25.1 252.98-12.05Q252.98-9.05 253.38-7.05 253.78-5.05 254.33-3.85L254.33-3.85Q254.93-2.4 255.73-1.6L255.73-1.6 249.38 0.4Q248.93-0.05 248.48-0.75L248.48-0.75Q248.08-1.3 247.68-2.18 247.28-3.05 247.03-4.2L247.03-4.2Q245.73-1.85 243.45-0.78 241.18 0.3 238.53 0.3L238.53 0.3Q236.58 0.3 235.2-0.33 233.83-0.95 232.95-2.08 232.08-3.2 231.7-4.8 231.33-6.4 231.33-8.4L231.33-8.4 231.33-25.1 239.28-25.1 239.28-9.45Q239.28-7.7 239.7-6.63 240.13-5.55 241.28-5.55L241.28-5.55Q242.68-5.55 243.88-7.43 245.08-9.3 245.08-12.6L245.08-12.6ZM283.17-1.6L276.82 0.4 276.52 0.05Q276.22-0.25 275.82-0.9 275.42-1.55 275.02-2.48 274.62-3.4 274.42-4.6L274.42-4.6Q273.57-2.25 271.92-0.98 270.27 0.3 267.57 0.3L267.57 0.3Q265.12 0.3 263.3-0.6 261.47-1.5 260.27-3.13 259.07-4.75 258.5-7.05 257.92-9.35 257.92-12.15L257.92-12.15Q257.92-15 258.85-17.45 259.77-19.9 261.42-21.68 263.07-23.45 265.37-24.45 267.67-25.45 270.47-25.45L270.47-25.45Q270.92-25.45 271.45-25.4 271.97-25.35 272.52-25.3L272.52-25.3 272.52-36.2 280.42-34.9 280.42-12.05Q280.42-9.1 280.85-7.1 281.27-5.1 281.77-3.88 282.27-2.65 282.72-2.15L282.72-2.15 283.17-1.6ZM268.87-5.5Q269.62-5.5 270.3-6.15 270.97-6.8 271.47-7.9 271.97-9 272.25-10.43 272.52-11.85 272.52-13.45L272.52-13.45 272.52-19.25Q272.17-19.4 271.55-19.53 270.92-19.65 270.47-19.65L270.47-19.65Q269.27-19.65 268.47-19.13 267.67-18.6 267.2-17.68 266.72-16.75 266.52-15.45 266.32-14.15 266.32-12.65L266.32-12.65Q266.32-11.25 266.37-9.98 266.42-8.7 266.7-7.7 266.97-6.7 267.47-6.1 267.97-5.5 268.87-5.5L268.87-5.5ZM285.12-11.85Q285.12-15.2 286.1-17.78 287.07-20.35 288.8-22.08 290.52-23.8 292.82-24.7 295.12-25.6 297.82-25.6L297.82-25.6Q300.17-25.6 301.82-25.03 303.47-24.45 304.52-23.43 305.57-22.4 306.07-21.03 306.57-19.65 306.57-18.05L306.57-18.05Q306.57-16.25 305.67-14.65 304.77-13.05 303.1-11.83 301.42-10.6 299.05-9.8 296.67-9 293.67-8.75L293.67-8.75Q294.02-7.25 294.95-6.33 295.87-5.4 297.77-5.4L297.77-5.4Q298.87-5.4 300.12-5.65 301.37-5.9 302.42-6.2L302.42-6.2Q303.67-6.55 304.87-7L304.87-7 306.37-1.8Q305.02-1.15 303.42-0.65L303.42-0.65Q302.07-0.25 300.3 0.1 298.52 0.45 296.52 0.45L296.52 0.45Q293.47 0.45 291.3-0.45 289.12-1.35 287.75-2.95 286.37-4.55 285.75-6.83 285.12-9.1 285.12-11.85L285.12-11.85ZM296.82-19.95Q295.87-19.95 295.2-19.4 294.52-18.85 294.12-17.95 293.72-17.05 293.52-15.95 293.32-14.85 293.27-13.8L293.27-13.8Q294.77-13.85 295.8-14.25 296.82-14.65 297.47-15.25 298.12-15.85 298.42-16.55 298.72-17.25 298.72-17.85L298.72-17.85Q298.72-18.8 298.2-19.38 297.67-19.95 296.82-19.95L296.82-19.95Z" opacity="1" transform="matrix(1,0,0,1,0,0)" fill="#0718c4" class="undefined-text-0" data-fill-palette-color="quaternary" id="text-0"></path></svg></g></svg></g></svg></g></svg></g><g transform="matrix(1,0,0,1,90.70811563361184,0)"><svg viewBox="0 0 48.98376873277631 49.02670466830467" height="49.02670466830467" width="48.98376873277631"><g><svg xmlns="http://www.w3.org/2000/svg" xmlns:xlink="http://www.w3.org/1999/xlink" version="1.1" x="0" y="0" viewBox="0.084 0 95.832 95.916" enable-background="new 0 0 96 96" xml:space="preserve" height="49.02670466830467" width="48.98376873277631" class="icon-icon-0" data-fill-palette-color="quaternary" id="icon-0"><path d="M51.977 32.004c0.155 0 0.295 0.056 0.436 0.084 0.152-1.448 0.416-2.856 0.867-4.084H42.672c0.456 1.228 0.716 2.636 0.868 4.084 0.144-0.032 0.28-0.084 0.436-0.084H51.977L51.977 32.004z" fill="#0718c4" data-fill-palette-color="quaternary"></path><path d="M73.141 28.004H57.96c-0.517 0.3-1.728 1.7-1.731 8.188 0 10.596 7.135 15.751 21.812 15.751 9.916 0 13.933-0.399 13.933-10.271V36.18C91.977 29.58 78.027 28.028 73.141 28.004z" fill="#0718c4" data-fill-palette-color="quaternary"></path><path d="M36.26 16.024c1.092 0.156 1.852 1.168 1.696 2.26-0.144 1-1 1.72-1.98 1.72-0.092 0-0.188-0.008-0.284-0.02L11.84 16.576c-2.952 3.5-5.44 7.492-7.352 11.908 6.452-4.336 17.648-4.48 18.308-4.484h50.353c0.672 0 11.992 0.152 18.428 4.564-1.928-4.42-4.484-8.444-7.532-11.98l-23.792 3.404c-0.096 0.008-0.191 0.02-0.284 0.02-0.976 0-1.836-0.724-1.976-1.72-0.156-1.088 0.6-2.104 1.695-2.26l20.94-2.992C71.977 4.884 60.389 0.088 47.964 0.088c-12.688 0-24.2 4.728-32.768 12.932L36.26 16.024z" fill="#0718c4" data-fill-palette-color="quaternary"></path><path d="M47.98 80.004c7.752 0 15.165-2.8 20.94-7.804l-41.944-0.052C32.76 77.184 40.204 80.004 47.98 80.004z" fill="#0718c4" data-fill-palette-color="quaternary"></path><path d="M17.916 51.936c14.676 0 21.812-5.151 21.812-15.751C39.72 29.7 38.512 28.3 37.996 28H22.804c-0.176 0-18.828 0.324-18.828 8.172v5.492C3.98 51.548 8 51.936 17.916 51.936z" fill="#0718c4" data-fill-palette-color="quaternary"></path><path d="M77.916 55.936c-21.332 0-25.936-10.74-25.936-19.751 0-0.084 0-0.16 0-0.244 0 0.012 0.088 0.056 0 0.056h-8c-0.088 0 0-0.044 0-0.056 0 0.08 0 0.16 0 0.24 0 9.012-4.604 19.751-25.936 19.751-8.484 0-16.58-0.031-17.816-11.127C0.16 45.864 0.084 46.92 0.084 48c0 26.42 21.484 47.916 47.912 47.916 26.428 0 47.92-21.5 47.92-47.916 0-1.08-0.1-2.136-0.172-3.196C94.5 55.912 86.4 55.936 77.916 55.936zM75.244 71.512C68.4 79.443 58.464 84.004 47.98 84.004c-10.512 0-20.472-4.584-27.328-12.561-0.508-0.592-0.628-1.428-0.3-2.139 0.328-0.709 1.036-1.164 1.816-1.164l0 0 51.557 0.063c0.783 0 1.491 0.456 1.819 1.168C75.876 70.084 75.752 70.916 75.244 71.512z" fill="#0718c4" data-fill-palette-color="quaternary"></path></svg></g></svg></g><g></g></svg></g></svg></g></svg></g></svg></g><defs></defs></svg><rect width="576" height="360" fill="none" stroke="none" visibility="hidden"></rect></g></svg></g></svg>